<?xml version="1.0" standalone="no"?>
<!DOCTYPE svg PUBLIC "-//W3C//DTD SVG 20010904//EN"
 "http://www.w3.org/TR/2001/REC-SVG-20010904/DTD/svg10.dtd">
<svg version="1.0" xmlns="http://www.w3.org/2000/svg"
 width="1024.000000pt" height="1024.000000pt" viewBox="0 0 1024.000000 1024.000000"
 preserveAspectRatio="xMidYMid meet">

<g transform="translate(0.000000,1024.000000) scale(0.100000,-0.100000)"
fill="#000000" stroke="none">
<path d="M3920 6170 l0 -180 173 -2 172 -3 0 -780 0 -781 -26 -49 c-50 -98
-155 -148 -264 -125 -105 22 -180 107 -194 222 l-6 53 -175 0 -175 0 3 -60 c9
-162 62 -284 172 -396 184 -187 456 -233 697 -117 91 44 215 167 260 258 71
143 67 79 71 1163 l3 977 -356 0 -355 0 0 -180z m270 0 l0 -90 -85 0 -85 0 0
90 0 90 85 0 85 0 0 -90z"/>
<path d="M4719 6346 c-2 -2 -3 -83 -1 -180 l3 -176 134 0 135 0 1 -257 c0
-142 4 -278 7 -301 l7 -44 75 65 c41 35 114 105 162 155 l87 90 85 -101 c47
-56 106 -124 130 -151 l45 -49 30 68 c19 41 35 65 40 59 13 -13 289 -609 297
-639 l6 -25 -256 0 -256 0 0 -175 0 -175 346 -2 346 -3 141 -307 142 -308 193
0 c105 0 192 4 192 8 0 7 -211 461 -405 872 -48 102 -181 385 -295 630 -314
671 -444 943 -453 944 -5 0 -73 -133 -150 -297 l-142 -297 -3 300 -2 300 -318
0 c-175 0 -321 -2 -323 -4z"/>
<path d="M5261 5518 c-21 -46 -103 -218 -181 -383 -240 -507 -290 -613 -290
-619 0 -3 46 -7 103 -8 l102 -3 -3 -44 c-4 -62 -48 -139 -100 -176 -41 -28
-50 -30 -134 -31 l-90 0 -42 -85 c-24 -46 -62 -115 -85 -153 -48 -77 -48 -76
34 -102 79 -25 219 -30 309 -10 222 50 392 213 453 437 16 58 18 120 18 659
l0 595 -27 3 c-26 3 -30 -3 -67 -80z"/>
<path d="M5440 5238 c0 -80 4 -138 9 -132 11 12 121 253 121 265 0 5 -29 9
-65 9 l-65 0 0 -142z"/>
</g>
</svg>
